<mxfile host="app.diagrams.net" modified="2023-12-11T11:10:23.197Z" agent="Mozilla/5.0 (Windows NT 10.0; Win64; x64) AppleWebKit/537.36 (KHTML, like Gecko) Chrome/120.0.0.0 Safari/537.36 Edg/120.0.0.0" etag="Q8AXtrxiUvQiRM6STPCH" version="22.1.7" type="github">
  <diagram name="第 1 页" id="isn1Cu2503PfdI5gO5kN">
    <mxGraphModel dx="1426" dy="759" grid="1" gridSize="10" guides="1" tooltips="1" connect="1" arrows="1" fold="1" page="1" pageScale="1" pageWidth="827" pageHeight="1169" math="0" shadow="0">
      <root>
        <mxCell id="0" />
        <mxCell id="1" parent="0" />
        <mxCell id="ahwWnJTDRQThEhroogag-1" value="0" style="rounded=0;whiteSpace=wrap;html=1;fillColor=#dae8fc;strokeColor=#6c8ebf;" parent="1" vertex="1">
          <mxGeometry x="20" y="180" width="60" height="30" as="geometry" />
        </mxCell>
        <mxCell id="ahwWnJTDRQThEhroogag-2" value="1" style="rounded=0;whiteSpace=wrap;html=1;fillColor=#dae8fc;strokeColor=#6c8ebf;" parent="1" vertex="1">
          <mxGeometry x="80" y="180" width="60" height="30" as="geometry" />
        </mxCell>
        <mxCell id="SiWrspfLqqCoKdUYnv76-4" style="edgeStyle=orthogonalEdgeStyle;rounded=0;orthogonalLoop=1;jettySize=auto;html=1;entryX=0.5;entryY=0;entryDx=0;entryDy=0;exitX=0.5;exitY=1;exitDx=0;exitDy=0;" edge="1" parent="1" source="SiWrspfLqqCoKdUYnv76-2" target="ahwWnJTDRQThEhroogag-7">
          <mxGeometry relative="1" as="geometry">
            <mxPoint x="170" y="210" as="sourcePoint" />
          </mxGeometry>
        </mxCell>
        <mxCell id="SiWrspfLqqCoKdUYnv76-6" style="edgeStyle=orthogonalEdgeStyle;rounded=0;orthogonalLoop=1;jettySize=auto;html=1;exitX=0.5;exitY=1;exitDx=0;exitDy=0;entryX=0.5;entryY=0;entryDx=0;entryDy=0;" edge="1" parent="1" source="ahwWnJTDRQThEhroogag-3" target="SiWrspfLqqCoKdUYnv76-5">
          <mxGeometry relative="1" as="geometry" />
        </mxCell>
        <mxCell id="ahwWnJTDRQThEhroogag-3" value="2" style="rounded=0;whiteSpace=wrap;html=1;fillColor=#dae8fc;strokeColor=#6c8ebf;" parent="1" vertex="1">
          <mxGeometry x="140" y="180" width="60" height="30" as="geometry" />
        </mxCell>
        <mxCell id="ahwWnJTDRQThEhroogag-7" value="A" style="rounded=0;whiteSpace=wrap;html=1;fillColor=#dae8fc;strokeColor=#6c8ebf;" parent="1" vertex="1">
          <mxGeometry x="260" y="240" width="60" height="30" as="geometry" />
        </mxCell>
        <mxCell id="ahwWnJTDRQThEhroogag-24" value="高低位链表" style="rounded=1;whiteSpace=wrap;html=1;strokeWidth=2;fillWeight=4;hachureGap=8;hachureAngle=45;fillColor=#1ba1e2;sketch=1;" parent="1" vertex="1">
          <mxGeometry x="20" y="345" width="90" height="30" as="geometry" />
        </mxCell>
        <mxCell id="SiWrspfLqqCoKdUYnv76-1" value="..." style="rounded=0;whiteSpace=wrap;html=1;fillColor=#dae8fc;strokeColor=#6c8ebf;" vertex="1" parent="1">
          <mxGeometry x="200" y="180" width="60" height="30" as="geometry" />
        </mxCell>
        <mxCell id="SiWrspfLqqCoKdUYnv76-2" value="14" style="rounded=0;whiteSpace=wrap;html=1;fillColor=#dae8fc;strokeColor=#6c8ebf;" vertex="1" parent="1">
          <mxGeometry x="260" y="180" width="60" height="30" as="geometry" />
        </mxCell>
        <mxCell id="SiWrspfLqqCoKdUYnv76-3" value="15" style="rounded=0;whiteSpace=wrap;html=1;fillColor=#dae8fc;strokeColor=#6c8ebf;" vertex="1" parent="1">
          <mxGeometry x="320" y="180" width="60" height="30" as="geometry" />
        </mxCell>
        <mxCell id="SiWrspfLqqCoKdUYnv76-5" value="B" style="rounded=0;whiteSpace=wrap;html=1;fillColor=#dae8fc;strokeColor=#6c8ebf;" vertex="1" parent="1">
          <mxGeometry x="140" y="240" width="60" height="30" as="geometry" />
        </mxCell>
        <mxCell id="SiWrspfLqqCoKdUYnv76-7" value="0" style="rounded=0;whiteSpace=wrap;html=1;fillColor=#dae8fc;strokeColor=#6c8ebf;" vertex="1" parent="1">
          <mxGeometry x="20" y="455" width="60" height="30" as="geometry" />
        </mxCell>
        <mxCell id="SiWrspfLqqCoKdUYnv76-8" value="1" style="rounded=0;whiteSpace=wrap;html=1;fillColor=#dae8fc;strokeColor=#6c8ebf;" vertex="1" parent="1">
          <mxGeometry x="80" y="455" width="60" height="30" as="geometry" />
        </mxCell>
        <mxCell id="SiWrspfLqqCoKdUYnv76-9" style="edgeStyle=orthogonalEdgeStyle;rounded=0;orthogonalLoop=1;jettySize=auto;html=1;entryX=0.5;entryY=0;entryDx=0;entryDy=0;exitX=0.5;exitY=1;exitDx=0;exitDy=0;" edge="1" parent="1" source="SiWrspfLqqCoKdUYnv76-14" target="SiWrspfLqqCoKdUYnv76-12">
          <mxGeometry relative="1" as="geometry">
            <mxPoint x="170" y="485" as="sourcePoint" />
          </mxGeometry>
        </mxCell>
        <mxCell id="SiWrspfLqqCoKdUYnv76-11" value="2" style="rounded=0;whiteSpace=wrap;html=1;fillColor=#dae8fc;strokeColor=#6c8ebf;" vertex="1" parent="1">
          <mxGeometry x="140" y="455" width="60" height="30" as="geometry" />
        </mxCell>
        <mxCell id="SiWrspfLqqCoKdUYnv76-12" value="A" style="rounded=0;whiteSpace=wrap;html=1;fillColor=#dae8fc;strokeColor=#6c8ebf;" vertex="1" parent="1">
          <mxGeometry x="260" y="515" width="60" height="30" as="geometry" />
        </mxCell>
        <mxCell id="SiWrspfLqqCoKdUYnv76-13" value="..." style="rounded=0;whiteSpace=wrap;html=1;fillColor=#dae8fc;strokeColor=#6c8ebf;" vertex="1" parent="1">
          <mxGeometry x="200" y="455" width="60" height="30" as="geometry" />
        </mxCell>
        <mxCell id="SiWrspfLqqCoKdUYnv76-14" value="14" style="rounded=0;whiteSpace=wrap;html=1;fillColor=#dae8fc;strokeColor=#6c8ebf;" vertex="1" parent="1">
          <mxGeometry x="260" y="455" width="60" height="30" as="geometry" />
        </mxCell>
        <mxCell id="SiWrspfLqqCoKdUYnv76-15" value="15" style="rounded=0;whiteSpace=wrap;html=1;fillColor=#dae8fc;strokeColor=#6c8ebf;" vertex="1" parent="1">
          <mxGeometry x="320" y="455" width="60" height="30" as="geometry" />
        </mxCell>
        <mxCell id="SiWrspfLqqCoKdUYnv76-17" value="16" style="rounded=0;whiteSpace=wrap;html=1;fillColor=#dae8fc;strokeColor=#6c8ebf;" vertex="1" parent="1">
          <mxGeometry x="380" y="455" width="60" height="30" as="geometry" />
        </mxCell>
        <mxCell id="SiWrspfLqqCoKdUYnv76-18" value="17" style="rounded=0;whiteSpace=wrap;html=1;fillColor=#dae8fc;strokeColor=#6c8ebf;" vertex="1" parent="1">
          <mxGeometry x="440" y="455" width="60" height="30" as="geometry" />
        </mxCell>
        <mxCell id="SiWrspfLqqCoKdUYnv76-20" style="edgeStyle=orthogonalEdgeStyle;rounded=0;orthogonalLoop=1;jettySize=auto;html=1;exitX=0.5;exitY=1;exitDx=0;exitDy=0;entryX=0.5;entryY=0;entryDx=0;entryDy=0;" edge="1" parent="1" source="SiWrspfLqqCoKdUYnv76-21" target="SiWrspfLqqCoKdUYnv76-26">
          <mxGeometry relative="1" as="geometry" />
        </mxCell>
        <mxCell id="SiWrspfLqqCoKdUYnv76-21" value="18" style="rounded=0;whiteSpace=wrap;html=1;fillColor=#dae8fc;strokeColor=#6c8ebf;" vertex="1" parent="1">
          <mxGeometry x="500" y="455" width="60" height="30" as="geometry" />
        </mxCell>
        <mxCell id="SiWrspfLqqCoKdUYnv76-23" value="..." style="rounded=0;whiteSpace=wrap;html=1;fillColor=#dae8fc;strokeColor=#6c8ebf;" vertex="1" parent="1">
          <mxGeometry x="560" y="455" width="60" height="30" as="geometry" />
        </mxCell>
        <mxCell id="SiWrspfLqqCoKdUYnv76-24" value="31" style="rounded=0;whiteSpace=wrap;html=1;fillColor=#dae8fc;strokeColor=#6c8ebf;" vertex="1" parent="1">
          <mxGeometry x="620" y="455" width="60" height="30" as="geometry" />
        </mxCell>
        <mxCell id="SiWrspfLqqCoKdUYnv76-26" value="B" style="rounded=0;whiteSpace=wrap;html=1;fillColor=#dae8fc;strokeColor=#6c8ebf;" vertex="1" parent="1">
          <mxGeometry x="500" y="515" width="60" height="30" as="geometry" />
        </mxCell>
        <mxCell id="SiWrspfLqqCoKdUYnv76-27" value="hash(A)=0010 1100 1111 0001 1110 1110&lt;br&gt;&lt;span class=&quot;lark-record-clipboard&quot; data-lark-record-format=&quot;docx/text&quot; data-lark-record-data=&quot;{&amp;quot;rootId&amp;quot;:&amp;quot;Y223dMbC8odBP5xUrH3c6lRVnVh&amp;quot;,&amp;quot;text&amp;quot;:{&amp;quot;initialAttributedTexts&amp;quot;:{&amp;quot;text&amp;quot;:{&amp;quot;0&amp;quot;:&amp;quot;0010 1100 1111 0001 1110 1110&amp;quot;},&amp;quot;attribs&amp;quot;:{&amp;quot;0&amp;quot;:&amp;quot;*0+t&amp;quot;}},&amp;quot;apool&amp;quot;:{&amp;quot;numToAttrib&amp;quot;:{&amp;quot;0&amp;quot;:[&amp;quot;author&amp;quot;,&amp;quot;7121550569587802115&amp;quot;]},&amp;quot;nextNum&amp;quot;:1}},&amp;quot;type&amp;quot;:&amp;quot;text&amp;quot;,&amp;quot;referenceRecordMap&amp;quot;:{},&amp;quot;extra&amp;quot;:{&amp;quot;mention_page_title&amp;quot;:{},&amp;quot;external_mention_url&amp;quot;:{}},&amp;quot;isKeepQuoteContainer&amp;quot;:false,&amp;quot;isFromCode&amp;quot;:false,&amp;quot;selection&amp;quot;:[{&amp;quot;id&amp;quot;:229,&amp;quot;type&amp;quot;:&amp;quot;text&amp;quot;,&amp;quot;selection&amp;quot;:{&amp;quot;start&amp;quot;:13,&amp;quot;end&amp;quot;:42},&amp;quot;recordId&amp;quot;:&amp;quot;IN1YdTeqBob8PHxOIo6cEVPVnLn&amp;quot;}],&amp;quot;payloadMap&amp;quot;:{},&amp;quot;isCut&amp;quot;:false}&quot;&gt;hash(B)=0100 0001 0010&lt;br&gt;oldLength=16=00010000&lt;br style=&quot;border-color: var(--border-color);&quot;&gt;&lt;div data-docx-has-block-data=&quot;false&quot; data-page-id=&quot;Y223dMbC8odBP5xUrH3c6lRVnVh&quot;&gt;&lt;div class=&quot;old-record-id-MfLGdqeAFol0cdx5uXkcTbtengd&quot;&gt;hash(A)&amp;amp;(oldLength-1)=1110=14&lt;/div&gt;&lt;div class=&quot;old-record-id-MfLGdqeAFol0cdx5uXkcTbtengd&quot;&gt;&lt;div style=&quot;border-color: var(--border-color);&quot; data-docx-has-block-data=&quot;false&quot; data-page-id=&quot;Y223dMbC8odBP5xUrH3c6lRVnVh&quot;&gt;&lt;div style=&quot;border-color: var(--border-color);&quot; class=&quot;old-record-id-MfLGdqeAFol0cdx5uXkcTbtengd&quot;&gt;hash(B)&amp;amp;(oldLength-1)=0010=2&lt;/div&gt;&lt;div&gt;&lt;br&gt;&lt;/div&gt;&lt;/div&gt;&lt;/div&gt;&lt;/div&gt;&lt;span class=&quot;lark-record-clipboard&quot; data-lark-record-format=&quot;docx/text&quot; data-lark-record-data=&quot;{&amp;quot;rootId&amp;quot;:&amp;quot;Y223dMbC8odBP5xUrH3c6lRVnVh&amp;quot;,&amp;quot;text&amp;quot;:{&amp;quot;initialAttributedTexts&amp;quot;:{&amp;quot;text&amp;quot;:{&amp;quot;0&amp;quot;:&amp;quot;0100 0001 0010&amp;quot;},&amp;quot;attribs&amp;quot;:{&amp;quot;0&amp;quot;:&amp;quot;*0+e&amp;quot;}},&amp;quot;apool&amp;quot;:{&amp;quot;numToAttrib&amp;quot;:{&amp;quot;0&amp;quot;:[&amp;quot;author&amp;quot;,&amp;quot;7121550569587802115&amp;quot;]},&amp;quot;nextNum&amp;quot;:1}},&amp;quot;type&amp;quot;:&amp;quot;text&amp;quot;,&amp;quot;referenceRecordMap&amp;quot;:{},&amp;quot;extra&amp;quot;:{&amp;quot;mention_page_title&amp;quot;:{},&amp;quot;external_mention_url&amp;quot;:{}},&amp;quot;isKeepQuoteContainer&amp;quot;:false,&amp;quot;isFromCode&amp;quot;:false,&amp;quot;selection&amp;quot;:[{&amp;quot;id&amp;quot;:218,&amp;quot;type&amp;quot;:&amp;quot;text&amp;quot;,&amp;quot;selection&amp;quot;:{&amp;quot;start&amp;quot;:8,&amp;quot;end&amp;quot;:22},&amp;quot;recordId&amp;quot;:&amp;quot;BmqHdPnKqoqBXzxYA9KcRn11nDb&amp;quot;}],&amp;quot;payloadMap&amp;quot;:{},&amp;quot;isCut&amp;quot;:false}&quot;&gt;&lt;/span&gt;&lt;/span&gt;" style="text;html=1;strokeColor=none;fillColor=none;align=left;verticalAlign=middle;whiteSpace=wrap;rounded=0;" vertex="1" parent="1">
          <mxGeometry x="20" y="120" width="300" height="30" as="geometry" />
        </mxCell>
        <mxCell id="SiWrspfLqqCoKdUYnv76-28" value="hash(A)=0010 1100 1111 0001 1110 1110&lt;br&gt;&lt;span class=&quot;lark-record-clipboard&quot; data-lark-record-format=&quot;docx/text&quot; data-lark-record-data=&quot;{&amp;quot;rootId&amp;quot;:&amp;quot;Y223dMbC8odBP5xUrH3c6lRVnVh&amp;quot;,&amp;quot;text&amp;quot;:{&amp;quot;initialAttributedTexts&amp;quot;:{&amp;quot;text&amp;quot;:{&amp;quot;0&amp;quot;:&amp;quot;0010 1100 1111 0001 1110 1110&amp;quot;},&amp;quot;attribs&amp;quot;:{&amp;quot;0&amp;quot;:&amp;quot;*0+t&amp;quot;}},&amp;quot;apool&amp;quot;:{&amp;quot;numToAttrib&amp;quot;:{&amp;quot;0&amp;quot;:[&amp;quot;author&amp;quot;,&amp;quot;7121550569587802115&amp;quot;]},&amp;quot;nextNum&amp;quot;:1}},&amp;quot;type&amp;quot;:&amp;quot;text&amp;quot;,&amp;quot;referenceRecordMap&amp;quot;:{},&amp;quot;extra&amp;quot;:{&amp;quot;mention_page_title&amp;quot;:{},&amp;quot;external_mention_url&amp;quot;:{}},&amp;quot;isKeepQuoteContainer&amp;quot;:false,&amp;quot;isFromCode&amp;quot;:false,&amp;quot;selection&amp;quot;:[{&amp;quot;id&amp;quot;:229,&amp;quot;type&amp;quot;:&amp;quot;text&amp;quot;,&amp;quot;selection&amp;quot;:{&amp;quot;start&amp;quot;:13,&amp;quot;end&amp;quot;:42},&amp;quot;recordId&amp;quot;:&amp;quot;IN1YdTeqBob8PHxOIo6cEVPVnLn&amp;quot;}],&amp;quot;payloadMap&amp;quot;:{},&amp;quot;isCut&amp;quot;:false}&quot;&gt;hash(B)=0100 0001 0010&lt;br&gt;oldLength=32=000100000&lt;br style=&quot;border-color: var(--border-color);&quot;&gt;&lt;div data-docx-has-block-data=&quot;false&quot; data-page-id=&quot;Y223dMbC8odBP5xUrH3c6lRVnVh&quot;&gt;&lt;div class=&quot;old-record-id-MfLGdqeAFol0cdx5uXkcTbtengd&quot;&gt;hash(A)&amp;amp;(oldLength-1)=01110=14&lt;/div&gt;&lt;div class=&quot;old-record-id-MfLGdqeAFol0cdx5uXkcTbtengd&quot;&gt;&lt;div style=&quot;border-color: var(--border-color);&quot; data-docx-has-block-data=&quot;false&quot; data-page-id=&quot;Y223dMbC8odBP5xUrH3c6lRVnVh&quot;&gt;&lt;div style=&quot;border-color: var(--border-color);&quot; class=&quot;old-record-id-MfLGdqeAFol0cdx5uXkcTbtengd&quot;&gt;hash(B)&amp;amp;(oldLength-1)=10010=2+16=18&lt;/div&gt;&lt;div&gt;&lt;br&gt;&lt;/div&gt;&lt;/div&gt;&lt;/div&gt;&lt;/div&gt;&lt;span class=&quot;lark-record-clipboard&quot; data-lark-record-format=&quot;docx/text&quot; data-lark-record-data=&quot;{&amp;quot;rootId&amp;quot;:&amp;quot;Y223dMbC8odBP5xUrH3c6lRVnVh&amp;quot;,&amp;quot;text&amp;quot;:{&amp;quot;initialAttributedTexts&amp;quot;:{&amp;quot;text&amp;quot;:{&amp;quot;0&amp;quot;:&amp;quot;0100 0001 0010&amp;quot;},&amp;quot;attribs&amp;quot;:{&amp;quot;0&amp;quot;:&amp;quot;*0+e&amp;quot;}},&amp;quot;apool&amp;quot;:{&amp;quot;numToAttrib&amp;quot;:{&amp;quot;0&amp;quot;:[&amp;quot;author&amp;quot;,&amp;quot;7121550569587802115&amp;quot;]},&amp;quot;nextNum&amp;quot;:1}},&amp;quot;type&amp;quot;:&amp;quot;text&amp;quot;,&amp;quot;referenceRecordMap&amp;quot;:{},&amp;quot;extra&amp;quot;:{&amp;quot;mention_page_title&amp;quot;:{},&amp;quot;external_mention_url&amp;quot;:{}},&amp;quot;isKeepQuoteContainer&amp;quot;:false,&amp;quot;isFromCode&amp;quot;:false,&amp;quot;selection&amp;quot;:[{&amp;quot;id&amp;quot;:218,&amp;quot;type&amp;quot;:&amp;quot;text&amp;quot;,&amp;quot;selection&amp;quot;:{&amp;quot;start&amp;quot;:8,&amp;quot;end&amp;quot;:22},&amp;quot;recordId&amp;quot;:&amp;quot;BmqHdPnKqoqBXzxYA9KcRn11nDb&amp;quot;}],&amp;quot;payloadMap&amp;quot;:{},&amp;quot;isCut&amp;quot;:false}&quot;&gt;&lt;/span&gt;&lt;/span&gt;" style="text;html=1;strokeColor=none;fillColor=none;align=left;verticalAlign=middle;whiteSpace=wrap;rounded=0;" vertex="1" parent="1">
          <mxGeometry x="120" y="365" width="300" height="30" as="geometry" />
        </mxCell>
        <mxCell id="SiWrspfLqqCoKdUYnv76-29" value="" style="shape=curlyBracket;whiteSpace=wrap;html=1;rounded=1;flipH=1;labelPosition=right;verticalLabelPosition=middle;align=left;verticalAlign=middle;rotation=-90;fillColor=#d5e8d4;strokeColor=#82b366;" vertex="1" parent="1">
          <mxGeometry x="185" y="260" width="30" height="360" as="geometry" />
        </mxCell>
        <mxCell id="SiWrspfLqqCoKdUYnv76-30" value="low" style="text;html=1;strokeColor=none;fillColor=none;align=left;verticalAlign=middle;whiteSpace=wrap;rounded=0;" vertex="1" parent="1">
          <mxGeometry x="185" y="405" width="40" height="30" as="geometry" />
        </mxCell>
        <mxCell id="SiWrspfLqqCoKdUYnv76-32" value="high" style="text;html=1;strokeColor=none;fillColor=none;align=left;verticalAlign=middle;whiteSpace=wrap;rounded=0;" vertex="1" parent="1">
          <mxGeometry x="516.25" y="405" width="40" height="30" as="geometry" />
        </mxCell>
        <mxCell id="SiWrspfLqqCoKdUYnv76-33" value="" style="shape=curlyBracket;whiteSpace=wrap;html=1;rounded=1;flipH=1;labelPosition=right;verticalLabelPosition=middle;align=left;verticalAlign=middle;rotation=-90;fillColor=#f8cecc;strokeColor=#b85450;" vertex="1" parent="1">
          <mxGeometry x="516.25" y="291.25" width="30" height="297.5" as="geometry" />
        </mxCell>
      </root>
    </mxGraphModel>
  </diagram>
</mxfile>
